<?xml version="1.0" encoding="UTF-8" standalone="no"?>
<svg
   xmlns:dc="http://purl.org/dc/elements/1.1/"
   xmlns:cc="http://creativecommons.org/ns#"
   xmlns:rdf="http://www.w3.org/1999/02/22-rdf-syntax-ns#"
   xmlns:svg="http://www.w3.org/2000/svg"
   xmlns="http://www.w3.org/2000/svg"
   xmlns:sodipodi="http://sodipodi.sourceforge.net/DTD/sodipodi-0.dtd"
   xmlns:inkscape="http://www.inkscape.org/namespaces/inkscape"
   version="1.1"
   id="svg2"
   xml:space="preserve"
   width="3029.3333"
   height="2496"
   viewBox="0 0 3029.3333 2496"
   sodipodi:docname="teleworking2.eps"><metadata
     id="metadata8"><rdf:RDF><cc:Work
         rdf:about=""><dc:format>image/svg+xml</dc:format><dc:type
           rdf:resource="http://purl.org/dc/dcmitype/StillImage" /></cc:Work></rdf:RDF></metadata><defs
     id="defs6" /><sodipodi:namedview
     pagecolor="#ffffff"
     bordercolor="#666666"
     borderopacity="1"
     objecttolerance="10"
     gridtolerance="10"
     guidetolerance="10"
     inkscape:pageopacity="0"
     inkscape:pageshadow="2"
     inkscape:window-width="640"
     inkscape:window-height="480"
     id="namedview4" /><g
     id="g10"
     inkscape:groupmode="layer"
     inkscape:label="ink_ext_XXXXXX"
     transform="matrix(1.3333333,0,0,-1.3333333,0,2496)"><g
       id="g12"
       transform="scale(0.1)"><path
         d="m 3915.11,2626.7 c 701.43,330.3 586.77,1365 314.49,1939.5 -277.65,585.8 -739.18,1062.7 -1082.31,1612.8 -444.26,712.2 -685.51,1562.6 -606.52,2398.3 69.21,732.29 395.16,1445.2 934.29,1950.1 577.85,541.3 1177.91,738 1905.22,1008.8 1082.75,403.3 1814.37,1134.5 2433.99,2089.5 470.74,725.5 934.51,1499.6 1668.06,1957.8 634.97,396.6 1402.67,510.4 2148.17,578.9 602.9,55.4 1217.5,86.2 1807.9,-48.2 1488.6,-338.9 1956.2,-1865.6 3000.3,-2795.9 1016.8,-905.9 2438.9,-1145.9 3228.4,-2345.9 650.2,-988.5 653.7,-2300 255.6,-3414.2 -336.9,-943.2 -928.9,-1767.7 -1577.5,-2520.8 -526.5,-611.3 -980.5,-1570.7 -485.4,-2349.6"
         style="fill:#f0eff9;fill-opacity:1;fill-rule:nonzero;stroke:none"
         id="path14" /><path
         d="m 17202,8391.1 c 1,-14 -10,-25.6 -24.1,-25.6 h -1492.2 c -15,0 -26.5,13.6 -23.7,28.4 10,54.7 43.1,169.3 145.9,169.3 126.6,0 130.1,1210.89 130,1364.09 0,9.7 -5.7,18.4 -14.6,22.2 -30.4,13.1 -55.5,34.6 -72.9,61.21 -17.5,26.5 -27.5,58.1 -27.5,91.3 v 509.1 c 0,23.8 30.8,33.2 44.1,13.5 l 88.9,-131.4 c 4.5,-6.5 11.6,-10.4 19.5,-10.6 l 408.7,-9.4 c 8.5,-0.2 16.7,4.2 21.2,11.5 l 81.4,132.5 c 12.8,20.7 44.7,11.7 44.7,-12.6 v -418 c 0,-117.5 37.1,-231.81 105.4,-327.31 146.1,-204 394.2,-628.4 414.8,-1178.99 0,-2.6 0.2,-5.1 0.4,-7.6 0.1,-0.1 0,-0.1 0,-0.1 3.8,-37.9 23.8,-72.3 54.3,-95.5 26.6,-20.2 57,-52.1 76.6,-100.5 9.6,-24.2 16.6,-52.5 19.1,-85.5"
         style="fill:#343f9e;fill-opacity:1;fill-rule:nonzero;stroke:none"
         id="path16" /><path
         d="m 17182.9,8476.6 c -25,-48.3 -48,-86.2 -64,-111.1 h -199.7 c -7.5,27.9 -2.6,58.8 15.4,84 2.4,3.3 63.9,91.4 117.4,223.1 0,0 0.1,0 0,0.1 75.4,185.19 134.3,456.49 -10.3,699.29 -143.4,240.9 -212.2,488.9 -198.7,717.11 12.8,215.3 97.7,397 239,511.7 42.9,34.9 105.9,28.3 140.8,-14.6 34.7,-42.9 28.1,-105.8 -14.8,-140.6 -191.8,-155.8 -251.7,-539.51 5.5,-971.22 225.8,-379.1 78.3,-786.98 -30.6,-997.78"
         style="fill:#343f9e;fill-opacity:1;fill-rule:nonzero;stroke:none"
         id="path18" /><path
         d="m 5879.91,6722.6 c 253.85,253.9 613.33,337.3 936.91,251 86.35,-323.6 2.88,-683.1 -250.97,-936.9 -253.85,-253.9 -613.33,-337.4 -936.91,-251 -86.35,323.6 -2.88,683.1 250.97,936.9"
         style="fill:#b1a9db;fill-opacity:1;fill-rule:nonzero;stroke:none"
         id="path20" /><path
         d="m 6625.84,6782.6 -996.9,-996.9"
         style="fill:none;stroke:#343f9e;stroke-width:70;stroke-linecap:round;stroke-linejoin:round;stroke-miterlimit:10;stroke-dasharray:none;stroke-opacity:1"
         id="path22" /><path
         d="m 6419.2,6044.9 -502.95,28.1 -25.53,456.3"
         style="fill:none;stroke:#343f9e;stroke-width:70;stroke-linecap:round;stroke-linejoin:round;stroke-miterlimit:10;stroke-dasharray:none;stroke-opacity:1"
         id="path24" /><path
         d="m 6565.85,6429.3 -266.03,27.3 -27.27,266"
         style="fill:none;stroke:#343f9e;stroke-width:70;stroke-linecap:round;stroke-linejoin:round;stroke-miterlimit:10;stroke-dasharray:none;stroke-opacity:1"
         id="path26" /><path
         d="m 5345.04,6298.4 c -253.84,253.9 -613.32,337.3 -936.91,251 -86.35,-323.6 -2.87,-683.1 250.98,-936.9 253.84,-253.9 613.32,-337.4 936.91,-251 86.35,323.6 2.87,683.1 -250.98,936.9"
         style="fill:#b1a9db;fill-opacity:1;fill-rule:nonzero;stroke:none"
         id="path28" /><path
         d="m 5912.61,14022.5 h -572.5 V 12500 h 572.5 v 1522.5"
         style="fill:#343f9e;fill-opacity:1;fill-rule:nonzero;stroke:none"
         id="path30" /><path
         d="M 5551.36,14022.5 H 5232.61 V 12500 h 318.75 v 1522.5"
         style="fill:#6059b2;fill-opacity:1;fill-rule:nonzero;stroke:none"
         id="path32" /><path
         d="m 6462.61,14022.5 h -572.5 V 12500 h 572.5 v 1522.5"
         style="fill:#343f9e;fill-opacity:1;fill-rule:nonzero;stroke:none"
         id="path34" /><path
         d="M 6101.36,14022.5 H 5782.61 V 12500 h 318.75 v 1522.5"
         style="fill:#6059b2;fill-opacity:1;fill-rule:nonzero;stroke:none"
         id="path36" /><path
         d="m 7035.11,14022.5 h -572.5 V 12500 h 572.5 v 1522.5"
         style="fill:#343f9e;fill-opacity:1;fill-rule:nonzero;stroke:none"
         id="path38" /><path
         d="M 6673.86,14022.5 H 6355.11 V 12500 h 318.75 v 1522.5"
         style="fill:#6059b2;fill-opacity:1;fill-rule:nonzero;stroke:none"
         id="path40" /><path
         d="m 7494.1,14093.7 -534.73,-204.5 543.83,-1422.1 534.73,204.5 -543.83,1422.1"
         style="fill:#343f9e;fill-opacity:1;fill-rule:nonzero;stroke:none"
         id="path42" /><path
         d="m 7156.68,13964.7 -297.72,-113.9 543.83,-1422.1 297.72,113.9 -543.83,1422.1"
         style="fill:#6059b2;fill-opacity:1;fill-rule:nonzero;stroke:none"
         id="path44" /><path
         d="M 11639.4,12178.3 H 4574.94 c -88.84,0 -160.85,72 -160.85,160.8 v 0 c 0,88.8 72.01,160.9 160.85,160.9 h 7064.46 c 88.9,0 160.9,-72.1 160.9,-160.9 v 0 c 0,-88.8 -72,-160.8 -160.9,-160.8"
         style="fill:#928ecf;fill-opacity:1;fill-rule:nonzero;stroke:none"
         id="path46" /><path
         d="M 11639.4,14022.5 H 4574.94 c -88.84,0 -160.85,72 -160.85,160.8 v 0 c 0,88.9 72.01,160.9 160.85,160.9 h 7064.46 c 88.9,0 160.9,-72 160.9,-160.9 v 0 c 0,-88.8 -72,-160.8 -160.9,-160.8"
         style="fill:#928ecf;fill-opacity:1;fill-rule:nonzero;stroke:none"
         id="path48" /><path
         d="m 10792.5,12611.9 c 0,0 322.3,-45.4 573.2,-323.4 284.6,-315.4 -38,-665 83.7,-933.3 121.6,-268.2 153.9,-761.9 -178.6,-965.5 -332.4,-203.6 -171.9,-755.83 -459.5,-814.31 -287.5,-58.48 -688.2,429.41 -365.5,731.71 417.3,390.9 -13,831.8 350.4,994.4 363.4,162.7 -126.2,262.9 6.4,634.1 71.6,200.5 -10.1,676.3 -10.1,676.3"
         style="fill:#343f9e;fill-opacity:1;fill-rule:nonzero;stroke:none"
         id="path50" /><path
         d="m 13053.1,8777.58 c 0,0 314.6,-20.18 398.3,-194.18 83.7,-174.1 -666.8,-263.3 -689.5,194.18"
         style="fill:#fbcbb5;fill-opacity:1;fill-rule:nonzero;stroke:none"
         id="path52" /><path
         d="m 10306.7,2851.4 v 0 c -60.7,0 -110,49.2 -110,109.9 v 4281 c 0,60.7 49.3,109.9 110,109.9 v 0 c 60.7,0 110,-49.2 110,-109.9 v -4281 c 0,-60.7 -49.3,-109.9 -110,-109.9"
         style="fill:#343f9e;fill-opacity:1;fill-rule:nonzero;stroke:none"
         id="path54" /><path
         d="m 13053.1,8777.57 h -291.2 c 0,0 -505.1,655.5 -1115.8,1042.1 -63.9,40.5 -129,78 -194.8,111.5 -172.5,88.03 -349.9,148.33 -523.8,162.03 -873.5,68.7 32.2,1154.8 32.2,1154.8 0,0 345.4,-243.8 499.9,-370.8 52.9,-43.5 114.3,-98.6 183.8,-168.1 310.1,-310.3 811.8,-792.43 1409.7,-1931.53"
         style="fill:#6059b2;fill-opacity:1;fill-rule:nonzero;stroke:none"
         id="path56" /><path
         d="M 11258,5989.2 H 8861.61 c -245.67,0 -444.83,199.1 -444.83,444.8 v 23.3 c 0,245.7 199.16,444.9 444.83,444.9 H 11258 c 245.7,0 444.8,-199.2 444.8,-444.9 V 6434 c 0,-245.7 -199.1,-444.8 -444.8,-444.8"
         style="fill:#928ecf;fill-opacity:1;fill-rule:nonzero;stroke:none"
         id="path58" /><path
         d="M 11728.7,5989.2 H 9181 c -252.12,0 -456.5,204.3 -456.5,456.5 v 0 c 0,252.1 204.38,456.5 456.5,456.5 h 2547.7 c 252.1,0 456.5,-204.4 456.5,-456.5 v 0 c 0,-252.2 -204.4,-456.5 -456.5,-456.5"
         style="fill:#b1a9db;fill-opacity:1;fill-rule:nonzero;stroke:none"
         id="path60" /><path
         d="M 11016,6902.1 H 9186.53 c -349.41,0 -620.5,327.7 -580.34,701.5 l 266.18,2474.9 c 34.16,317.4 283.64,556.8 580.35,556.8 h 1297.18 c 296.5,0 546.1,-239.4 580.3,-556.8 l 266.2,-2474.9 c 40.1,-373.8 -231.1,-701.5 -580.4,-701.5"
         style="fill:#928ecf;fill-opacity:1;fill-rule:nonzero;stroke:none"
         id="path62" /><path
         d="M 10997.3,6902.1 H 9526.18 c -364.14,0 -646.67,327.7 -604.82,701.5 l 277.41,2474.9 c 35.6,317.4 295.59,556.8 604.82,556.8 h 916.31 c 309,0 569.2,-239.4 604.8,-556.8 l 277.4,-2474.9 c 41.9,-373.8 -240.8,-701.5 -604.8,-701.5"
         style="fill:#b1a9db;fill-opacity:1;fill-rule:nonzero;stroke:none"
         id="path64" /><path
         d="M 8806.56,8189.7 7939.16,5520 7807.34,5114.2 7100.27,2938 c -16.78,-51.7 -64.91,-86.6 -119.23,-86.6 v 0 c -85.17,0 -145.55,83.1 -119.23,164.1 l 813.72,2504.5 131.81,405.8 760.65,2341.3 238.57,-77.4"
         style="fill:#343f9e;fill-opacity:1;fill-rule:nonzero;stroke:none"
         id="path66" /><path
         d="m 17158.9,2851.4 v 0 c -54.3,0 -102.4,34.9 -119.2,86.6 l -707.1,2176.2 -131.8,405.8 -867.4,2669.7 238.6,77.4 760.6,-2341.3 131.9,-405.8 813.7,-2504.5 c 26.3,-81 -34.1,-164.1 -119.3,-164.1"
         style="fill:#343f9e;fill-opacity:1;fill-rule:nonzero;stroke:none"
         id="path68" /><path
         d="m 8633.65,2851.4 v 0 c -54.31,0 -102.45,34.9 -119.24,86.6 l -707.07,2176.2 -131.81,405.8 -867.4,2669.7 238.56,77.4 760.65,-2341.3 131.82,-405.8 813.72,-2504.5 c 26.32,-81 -34.06,-164.1 -119.23,-164.1"
         style="fill:#6059b2;fill-opacity:1;fill-rule:nonzero;stroke:none"
         id="path70" /><path
         d="m 11415.3,10415.8 c 78.1,-431.1 -13.9,-993.23 -25.4,-1541.23 -3.5,-164.87 -7.1,-329.27 -14.7,-488.87 -39.1,-831.7 -184.7,-1535.6 -971.8,-1535.6 -1439.79,0 -1279.88,436.7 -1203.39,1300.5 76.5,863.77 1041.69,1271.37 819.29,2484.7 -155.78,849.6 538.5,769.1 538.5,769.1 l 401.9,-156.4 c 0,0 345.4,-224 455.6,-832.2"
         style="fill:#7c7ac5;fill-opacity:1;fill-rule:nonzero;stroke:none"
         id="path72" /><path
         d="m 14613.3,8627.4 h -2422.4 c -66.8,0 -120.9,-54.1 -120.9,-120.9 v 0 c 0,-66.7 54.1,-120.9 120.9,-120.9 h 2422.4 v 241.8"
         style="fill:#928ecf;fill-opacity:1;fill-rule:nonzero;stroke:none"
         id="path74" /><path
         d="m 12142.4,8623.7 c 0,0 334.1,-21.8 417.8,-210.3 83.8,-188.5 -788.2,-285.1 -810.9,210.3"
         style="fill:#fbcbb5;fill-opacity:1;fill-rule:nonzero;stroke:none"
         id="path76" /><path
         d="M 17658,8134.9 H 6481.98 v 250.7 H 17658 v -250.7"
         style="fill:#6059b2;fill-opacity:1;fill-rule:nonzero;stroke:none"
         id="path78" /><path
         d="M 17331.9,8189.7 16464.5,5520 16332.6,5114.2 15625.6,2938 c -16.8,-51.7 -65,-86.6 -119.3,-86.6 v 0 c -85.1,0 -145.5,83.1 -119.2,164.1 l 813.7,2504.5 131.8,405.8 760.7,2341.3 238.6,-77.4"
         style="fill:#6059b2;fill-opacity:1;fill-rule:nonzero;stroke:none"
         id="path80" /><path
         d="m 7888.16,5555.8 c 0,-49.8 -40.35,-90.1 -90.11,-90.1 -49.77,0 -90.12,40.3 -90.12,90.1 0,49.8 40.35,90.1 90.12,90.1 49.76,0 90.11,-40.3 90.11,-90.1"
         style="fill:#343f9e;fill-opacity:1;fill-rule:nonzero;stroke:none"
         id="path82" /><path
         d="m 7811.48,5662.7 v -213.8 h -26.87 v 213.8 h 26.87"
         style="fill:#6059b2;fill-opacity:1;fill-rule:nonzero;stroke:none"
         id="path84" /><path
         d="m 16433,5555.8 c 0,-49.8 -40.3,-90.1 -90.1,-90.1 -49.7,0 -90.1,40.3 -90.1,90.1 0,49.8 40.4,90.1 90.1,90.1 49.8,0 90.1,-40.3 90.1,-90.1"
         style="fill:#343f9e;fill-opacity:1;fill-rule:nonzero;stroke:none"
         id="path86" /><path
         d="m 16356.4,5662.7 v -213.8 h -26.9 v 213.8 h 26.9"
         style="fill:#6059b2;fill-opacity:1;fill-rule:nonzero;stroke:none"
         id="path88" /><path
         d="M 9231.21,8134.9 H 6481.98 v 250.7 h 2749.23 v -250.7"
         style="fill:#343f9e;fill-opacity:1;fill-rule:nonzero;stroke:none"
         id="path90" /><path
         d="m 16060.3,9739.7 -415.5,-1204.8 c -30.8,-89.3 -114.8,-149.3 -209.3,-149.3 h -2060 c -152.1,0 -258.9,149.9 -209.3,293.7 l 415.4,1204.8 c 30.8,89.3 114.9,149.3 209.4,149.3 h 2059.9 c 152.2,0 259,-149.9 209.4,-293.7"
         style="fill:#b1a9db;fill-opacity:1;fill-rule:nonzero;stroke:none"
         id="path92" /><path
         d="m 11341.4,2851.4 c -58.3,0 -105.6,47.2 -105.6,105.5 0,512.4 -416.8,929.2 -929.1,929.2 -512.34,0 -929.15,-416.8 -929.15,-929.2 0,-58.3 -47.28,-105.5 -105.59,-105.5 -58.3,0 -105.58,47.2 -105.58,105.5 0,628.8 511.53,1140.4 1140.32,1140.4 628.8,0 1140.3,-511.6 1140.3,-1140.4 0,-58.3 -47.3,-105.5 -105.6,-105.5"
         style="fill:#343f9e;fill-opacity:1;fill-rule:nonzero;stroke:none"
         id="path94" /><path
         d="m 9511.35,3085 c 0,-129.1 -104.59,-233.6 -233.61,-233.6 -129.01,0 -233.6,104.5 -233.6,233.6 0,129 104.59,233.6 233.6,233.6 129.02,0 233.61,-104.6 233.61,-233.6"
         style="fill:#6059b2;fill-opacity:1;fill-rule:nonzero;stroke:none"
         id="path96" /><path
         d="m 9370.29,3085 c 0,-51.1 -41.43,-92.6 -92.55,-92.6 -51.1,0 -92.54,41.5 -92.54,92.6 0,51.1 41.44,92.5 92.54,92.5 51.12,0 92.55,-41.4 92.55,-92.5"
         style="fill:#b1a9db;fill-opacity:1;fill-rule:nonzero;stroke:none"
         id="path98" /><path
         d="m 10540.3,3085 c 0,-129.1 -104.6,-233.6 -233.6,-233.6 -129,0 -233.6,104.5 -233.6,233.6 0,129 104.6,233.6 233.6,233.6 129,0 233.6,-104.6 233.6,-233.6"
         style="fill:#6059b2;fill-opacity:1;fill-rule:nonzero;stroke:none"
         id="path100" /><path
         d="m 11569.2,3085 c 0,-129.1 -104.5,-233.6 -233.6,-233.6 -129,0 -233.6,104.5 -233.6,233.6 0,129 104.6,233.6 233.6,233.6 129.1,0 233.6,-104.6 233.6,-233.6"
         style="fill:#6059b2;fill-opacity:1;fill-rule:nonzero;stroke:none"
         id="path102" /><path
         d="m 10399.2,3085 c 0,-51.1 -41.4,-92.6 -92.5,-92.6 -51.1,0 -92.6,41.5 -92.6,92.6 0,51.1 41.5,92.5 92.6,92.5 51.1,0 92.5,-41.4 92.5,-92.5"
         style="fill:#b1a9db;fill-opacity:1;fill-rule:nonzero;stroke:none"
         id="path104" /><path
         d="m 11428.2,3085 c 0,-51.1 -41.5,-92.6 -92.6,-92.6 -51.1,0 -92.5,41.5 -92.5,92.6 0,51.1 41.4,92.5 92.5,92.5 51.1,0 92.6,-41.4 92.6,-92.5"
         style="fill:#b1a9db;fill-opacity:1;fill-rule:nonzero;stroke:none"
         id="path106" /><path
         d="m 11655.7,11611.3 c -114.7,-264.8 -643.1,-116.5 -661,-111.4 l -0.4,0.2 -34.5,-252 c 0,0 -9.7,-131.4 -232.4,-92.8 -174.5,30.5 -169.6,249.2 -169.6,249.2 0,0 17.3,1243 701.1,1080.9 683.7,-162.3 513.4,-605.1 396.8,-874.1"
         style="fill:#fbcbb5;fill-opacity:1;fill-rule:nonzero;stroke:none"
         id="path108" /><path
         d="m 9199.97,8150.6 c 0,0 808.03,-511 2141.33,-192.4 0,0 2061.2,-696.5 1275,-4643.4 h -475.5 c 0,0 81.4,2817.1 -1080.3,3554.7 0,0 1060.8,-1578 711.5,-3554.7 h -446.5 c 0,0 -152.3,2563.7 -1679.07,3428.5 0,0 -980.27,276.5 -446.46,1407.3"
         style="fill:#343f9e;fill-opacity:1;fill-rule:nonzero;stroke:none"
         id="path110" /><path
         d="m 12616.3,3314.8 c 0,0 452.3,-18.1 653.2,-230.3 83.4,-88 21.3,-233.1 -100,-233.1 h -855.6 c -105,0 -188.9,87.4 -184.5,192.4 l 11.4,271 h 475.5"
         style="fill:#7c7ac5;fill-opacity:1;fill-rule:nonzero;stroke:none"
         id="path112" /><path
         d="m 11801.1,3314.8 c 0,0 452.2,-18.1 653.1,-230.3 83.4,-88 21.3,-233.1 -100,-233.1 h -855.5 c -105.1,0 -189,87.4 -184.6,192.4 l 11.4,271 h 475.6"
         style="fill:#928ecf;fill-opacity:1;fill-rule:nonzero;stroke:none"
         id="path114" /><path
         d="m 10994.3,11500.1 -34.5,-252 c -212.3,139 -209.9,255.9 -196.8,332.7 2.8,16.2 22.2,23.4 34.6,12.7 76.5,-65.7 196.7,-93.4 196.7,-93.4"
         style="fill:#f1b79e;fill-opacity:1;fill-rule:nonzero;stroke:none"
         id="path116" /><path
         d="m 11063.8,11024 c 0,0 177.8,-1626.9 1078.6,-2400.3 h -393.1 c 0,0 -803.6,477.81 -1408.5,1319.66"
         style="fill:#7c7ac5;fill-opacity:1;fill-rule:nonzero;stroke:none"
         id="path118" /><path
         d="m 11765.5,12150.8 -781,85.7 c -29.4,3.2 -52.2,24.3 -53.5,50.1 -5.5,112 25,391.5 479.3,333.3 441.8,-56.6 443.5,-314.9 423.2,-425.1 -5.2,-28.2 -35.4,-47.6 -68,-44"
         style="fill:#343f9e;fill-opacity:1;fill-rule:nonzero;stroke:none"
         id="path120" /><path
         d="m 11839.1,11884.3 c -11.5,-82.8 -59.7,-144.6 -107.7,-137.9 -48,6.6 -77.6,79.2 -66.1,162 11.5,82.9 59.7,144.7 107.7,138 48,-6.6 77.5,-79.2 66.1,-162.1"
         style="fill:#ffffff;fill-opacity:1;fill-rule:nonzero;stroke:none"
         id="path122" /><path
         d="m 11766.1,12027.5 c -14.8,0 -31.1,-10.2 -45.3,-28.5 -18.3,-23.4 -31.2,-56.5 -36.2,-93.2 -10.7,-77.1 17.5,-135.8 49.5,-140.2 32.1,-4.1 75,44.3 85.7,121.4 10.7,77.1 -17.5,135.8 -49.5,140.2 -1.4,0.2 -2.8,0.3 -4.2,0.3 z m -27.6,-301.1 c -3.2,0 -6.5,0.3 -9.8,0.7 -59.5,8.3 -95.8,89.1 -82.6,184 6,43.4 21.7,83.1 44.1,111.8 24.8,31.8 55.2,47 85.5,42.7 59.4,-8.2 95.7,-89 82.6,-183.9 v 0 c -12.5,-89.7 -64,-155.3 -119.8,-155.3"
         style="fill:#928ecf;fill-opacity:1;fill-rule:nonzero;stroke:none"
         id="path124" /><path
         d="m 11530.7,11927.1 c -15.3,-110.1 -79.3,-192.1 -143,-183.3 -63.8,8.8 -103.1,105.2 -87.8,215.3 15.3,110.1 79.3,192.1 143,183.3 63.7,-8.8 103,-105.2 87.8,-215.3"
         style="fill:#ffffff;fill-opacity:1;fill-rule:nonzero;stroke:none"
         id="path126" /><path
         d="m 11433.4,12123.6 c -50.1,0 -101.3,-73.9 -114.3,-167.2 -6.9,-49.9 -2.3,-98 13,-135.6 13.9,-34 34.5,-54.5 58.2,-57.8 52.5,-6.9 107.6,69.1 121.2,166.8 v 0 c 6.9,49.9 2.3,98 -13.1,135.6 -13.8,34 -34.5,54.5 -58.1,57.8 -2.3,0.3 -4.6,0.4 -6.9,0.4 z m -36.2,-399.9 c -4,0 -8.1,0.3 -12.2,0.9 -38,5.2 -69.5,34.2 -88.8,81.6 -17.9,43.7 -23.4,99 -15.5,155.6 17,122.5 89.4,210.4 164.9,199.8 37.9,-5.2 69.5,-34.2 88.8,-81.6 17.8,-43.7 23.4,-99 15.5,-155.6 -16.1,-115.9 -81.7,-200.7 -152.7,-200.7"
         style="fill:#928ecf;fill-opacity:1;fill-rule:nonzero;stroke:none"
         id="path128" /><path
         d="m 11294.7,11940.4 -437,120.7 10.3,37.4 437.1,-120.7 -10.4,-37.4"
         style="fill:#928ecf;fill-opacity:1;fill-rule:nonzero;stroke:none"
         id="path130" /><path
         d="m 11650.5,11895.9 c -44.8,52.6 -107.1,16.2 -109.8,14.6 l -20.1,33.2 c 31.9,19.5 106.4,39.9 159.5,-22.7 l -29.6,-25.1"
         style="fill:#928ecf;fill-opacity:1;fill-rule:nonzero;stroke:none"
         id="path132" /><path
         d="m 11462.6,12611.9 c 0,0 -301.8,291.4 -669,95.8 -374.9,-199.8 -370.8,-553.3 -629.6,-694 -258.82,-140.6 -582.28,-514.9 -439.93,-877.8 142.35,-362.9 -318.76,-706.6 -124.65,-926.7 194.11,-220.05 807.88,-72.5 732.88,363.3 -97.1,563.4 512,655.6 320.3,1004.5 -191.8,348.9 259.2,133.5 377.3,509.5 63.9,203.2 432.7,525.4 432.7,525.4"
         style="fill:#343f9e;fill-opacity:1;fill-rule:nonzero;stroke:none"
         id="path134" /><path
         d="M 18975.1,2510.4 H 3485.08 c -94.15,0 -170.48,76.3 -170.48,170.5 v 0 c 0,94.1 76.33,170.5 170.48,170.5 H 18975.1 c 94.2,0 170.5,-76.4 170.5,-170.5 v 0 c 0,-94.2 -76.3,-170.5 -170.5,-170.5"
         style="fill:#b1a9db;fill-opacity:1;fill-rule:nonzero;stroke:none"
         id="path136" /><path
         d="m 11389.9,8874.57 c -3.5,-164.87 -7.1,-329.27 -14.7,-488.87 -602.5,408.02 -790.6,968.27 -846.3,1215.39 -6.3,28.01 29.8,44.96 47.3,22.24 240.1,-311.04 813.7,-748.76 813.7,-748.76"
         style="fill:#6059b2;fill-opacity:1;fill-rule:nonzero;stroke:none"
         id="path138" /><path
         d="M 6256.53,5101.8 H 4960.57 c -119.38,0 -211.44,-105.1 -195.67,-223.5 l 247.38,-1855.6 c 13.07,-98.1 96.72,-171.3 195.66,-171.3 h 801.22 c 98.94,0 182.59,73.2 195.66,171.3 l 247.37,1855.6 c 15.78,118.4 -76.28,223.5 -195.66,223.5"
         style="fill:#6059b2;fill-opacity:1;fill-rule:nonzero;stroke:none"
         id="path140" /><path
         d="M 6539.77,4689.1 H 4677.33 c -23.26,0 -42.12,18.9 -42.12,42.1 v 328.5 c 0,23.2 18.86,42.1 42.12,42.1 h 1862.44 c 23.26,0 42.11,-18.9 42.11,-42.1 v -328.5 c 0,-23.2 -18.85,-42.1 -42.11,-42.1"
         style="fill:#343f9e;fill-opacity:1;fill-rule:nonzero;stroke:none"
         id="path142" /><path
         d="M 5608.55,5101.8 V 6953.5"
         style="fill:none;stroke:#343f9e;stroke-width:70;stroke-linecap:round;stroke-linejoin:round;stroke-miterlimit:10;stroke-dasharray:none;stroke-opacity:1"
         id="path144" /><path
         d="m 5357.57,7891.4 c -253.84,253.8 -613.32,337.3 -936.91,250.9 -86.34,-323.6 -2.87,-683 250.98,-936.9 253.85,-253.8 613.33,-337.3 936.91,-250.9 86.35,323.5 2.88,683 -250.98,936.9"
         style="fill:#b1a9db;fill-opacity:1;fill-rule:nonzero;stroke:none"
         id="path146" /><path
         d="m 17528.8,15236.3 h -3989.7 c -274.4,0 -496.8,-222.5 -496.8,-496.9 v -3384.8 c 0,-274.3 222.4,-496.8 496.8,-496.8 h 3989.7 c 274.4,0 496.8,222.5 496.8,496.8 v 3384.8 c 0,274.4 -222.4,496.9 -496.8,496.9"
         style="fill:#6059b2;fill-opacity:1;fill-rule:nonzero;stroke:none"
         id="path148" /><path
         d="m 17607.8,14564.3 v -3034.5 c 0,-168.4 -136.5,-304.9 -304.9,-304.9 H 13765 c -168.4,0 -304.9,136.5 -304.9,304.9 v 3034.5 c 0,168.4 136.5,304.9 304.9,304.9 h 3537.9 c 168.4,0 304.9,-136.5 304.9,-304.9"
         style="fill:#b1a9db;fill-opacity:1;fill-rule:nonzero;stroke:none"
         id="path150" /><path
         d="m 15640.1,11091.2 h -212.3 v 3911.7 h 212.3 v -3911.7"
         style="fill:#6059b2;fill-opacity:1;fill-rule:nonzero;stroke:none"
         id="path152" /><path
         d="m 13311.1,12940.9 v 212.3 h 4445.7 v -212.3 h -4445.7"
         style="fill:#6059b2;fill-opacity:1;fill-rule:nonzero;stroke:none"
         id="path154" /><path
         d="m 14000.6,13624.6 981.7,856.1 c 173.9,151.7 445.5,28.2 445.5,-202.5 v -1125 h -1250.5 c -248.5,0 -363.9,308.1 -176.7,471.4"
         style="fill:#ffffff;fill-opacity:1;fill-rule:nonzero;stroke:none"
         id="path156" /><path
         d="m 16180.6,13624.6 981.8,856.1 c 173.9,151.7 445.4,28.2 445.4,-202.5 v -1125 h -1250.5 c -248.4,0 -363.9,308.1 -176.7,471.4"
         style="fill:#ffffff;fill-opacity:1;fill-rule:nonzero;stroke:none"
         id="path158" /><path
         d="m 14000.6,11696.3 981.7,856.1 c 173.9,151.7 445.5,28.2 445.5,-202.6 v -1124.9 h -1250.5 c -248.5,0 -363.9,308.1 -176.7,471.4"
         style="fill:#ffffff;fill-opacity:1;fill-rule:nonzero;stroke:none"
         id="path160" /><path
         d="m 17607.8,12349.9 v -820.1 c 0,-168.4 -136.5,-304.9 -304.9,-304.9 h -945.6 c -248.4,0 -363.9,308.1 -176.7,471.4 l 981.8,856.1 c 173.9,151.7 445.4,28.2 445.4,-202.5"
         style="fill:#ffffff;fill-opacity:1;fill-rule:nonzero;stroke:none"
         id="path162" /><path
         d="M 8583.45,14022.5 H 7874.69 V 12500 h 708.76 v 1522.5"
         style="fill:#343f9e;fill-opacity:1;fill-rule:nonzero;stroke:none"
         id="path164" /><path
         d="M 8085.94,14022.5 H 7767.19 V 12500 h 318.75 v 1522.5"
         style="fill:#6059b2;fill-opacity:1;fill-rule:nonzero;stroke:none"
         id="path166" /><path
         d="m 4599.11,6379.6 996.91,-996.9"
         style="fill:none;stroke:#343f9e;stroke-width:70;stroke-linecap:round;stroke-linejoin:round;stroke-miterlimit:10;stroke-dasharray:none;stroke-opacity:1"
         id="path168" /><path
         d="m 4805.75,5641.9 502.96,28.1 25.52,456.3"
         style="fill:none;stroke:#343f9e;stroke-width:70;stroke-linecap:round;stroke-linejoin:round;stroke-miterlimit:10;stroke-dasharray:none;stroke-opacity:1"
         id="path170" /><path
         d="m 4659.11,6026.3 266.02,27.3 27.27,266"
         style="fill:none;stroke:#343f9e;stroke-width:70;stroke-linecap:round;stroke-linejoin:round;stroke-miterlimit:10;stroke-dasharray:none;stroke-opacity:1"
         id="path172" /><path
         d="m 4611.65,7952.7 996.9,-996.9"
         style="fill:none;stroke:#343f9e;stroke-width:70;stroke-linecap:round;stroke-linejoin:round;stroke-miterlimit:10;stroke-dasharray:none;stroke-opacity:1"
         id="path174" /><path
         d="m 4818.29,7214.9 502.95,28.2 25.52,456.2"
         style="fill:none;stroke:#343f9e;stroke-width:70;stroke-linecap:round;stroke-linejoin:round;stroke-miterlimit:10;stroke-dasharray:none;stroke-opacity:1"
         id="path176" /><path
         d="m 4671.64,7599.4 266.03,27.2 27.26,266.1"
         style="fill:none;stroke:#343f9e;stroke-width:70;stroke-linecap:round;stroke-linejoin:round;stroke-miterlimit:10;stroke-dasharray:none;stroke-opacity:1"
         id="path178" /><path
         d="m 8401.12,12712 v -94.4 c 0,-65 52.68,-117.7 117.67,-117.7 h 1041.57 v 329.8 H 8518.79 c -64.99,0 -117.67,-52.7 -117.67,-117.7"
         style="fill:#6059b2;fill-opacity:1;fill-rule:nonzero;stroke:none"
         id="path180" /><path
         d="m 8566.02,12829.7 v -329.8 h 1184.34 v 329.8 H 8566.02"
         style="fill:#b1a9db;fill-opacity:1;fill-rule:nonzero;stroke:none"
         id="path182" /><path
         d="m 8184.59,13357.3 v -65.8 c 0,-72.9 59.1,-132 131.99,-132 h 1027.25 v 329.8 H 8316.58 c -72.89,0 -131.99,-59.1 -131.99,-132"
         style="fill:#6059b2;fill-opacity:1;fill-rule:nonzero;stroke:none"
         id="path184" /><path
         d="m 8334.06,13489.3 v -329.8 h 1199.77 v 329.8 H 8334.06"
         style="fill:#b1a9db;fill-opacity:1;fill-rule:nonzero;stroke:none"
         id="path186" /><path
         d="m 9578.31,12941.9 v 105.4 c 0,62 -50.22,112.2 -112.17,112.2 H 8419.07 v -329.8 h 1047.07 c 61.95,0 112.17,50.2 112.17,112.2"
         style="fill:#6059b2;fill-opacity:1;fill-rule:nonzero;stroke:none"
         id="path188" /><path
         d="m 9428.84,12829.7 v 329.8 H 8229.07 v -329.8 h 1199.77"
         style="fill:#928ecf;fill-opacity:1;fill-rule:nonzero;stroke:none"
         id="path190" /><path
         d="m 9832.81,13600.2 v 108 c 0,61.3 -49.64,110.9 -110.87,110.9 H 8673.57 v -329.8 h 1048.37 c 61.23,0 110.87,49.6 110.87,110.9"
         style="fill:#6059b2;fill-opacity:1;fill-rule:nonzero;stroke:none"
         id="path192" /><path
         d="m 9667.91,13489.3 v 329.8 H 8483.57 v -329.8 h 1184.34"
         style="fill:#928ecf;fill-opacity:1;fill-rule:nonzero;stroke:none"
         id="path194" /><path
         d="M 9667.91,13769.2 H 8483.57 v 20 h 1184.34 v -20"
         style="fill:#b1a9db;fill-opacity:1;fill-rule:nonzero;stroke:none"
         id="path196" /><path
         d="M 9667.91,13706.7 H 8483.57 v 20 h 1184.34 v -20"
         style="fill:#b1a9db;fill-opacity:1;fill-rule:nonzero;stroke:none"
         id="path198" /><path
         d="M 9667.91,13644.2 H 8483.57 v 20 h 1184.34 v -20"
         style="fill:#b1a9db;fill-opacity:1;fill-rule:nonzero;stroke:none"
         id="path200" /><path
         d="M 9667.91,13581.7 H 8483.57 v 20 h 1184.34 v -20"
         style="fill:#b1a9db;fill-opacity:1;fill-rule:nonzero;stroke:none"
         id="path202" /><path
         d="M 9667.91,13519.2 H 8483.57 v 20 h 1184.34 v -20"
         style="fill:#b1a9db;fill-opacity:1;fill-rule:nonzero;stroke:none"
         id="path204" /><path
         d="M 9428.84,13109.6 H 8229.07 v 20 h 1199.77 v -20"
         style="fill:#b1a9db;fill-opacity:1;fill-rule:nonzero;stroke:none"
         id="path206" /><path
         d="M 9428.84,13047.1 H 8229.07 v 20 h 1199.77 v -20"
         style="fill:#b1a9db;fill-opacity:1;fill-rule:nonzero;stroke:none"
         id="path208" /><path
         d="M 9428.84,12984.6 H 8229.07 v 20 h 1199.77 v -20"
         style="fill:#b1a9db;fill-opacity:1;fill-rule:nonzero;stroke:none"
         id="path210" /><path
         d="M 9428.84,12922.1 H 8229.07 v 20 h 1199.77 v -20"
         style="fill:#b1a9db;fill-opacity:1;fill-rule:nonzero;stroke:none"
         id="path212" /><path
         d="M 9428.84,12859.6 H 8229.07 v 20 h 1199.77 v -20"
         style="fill:#b1a9db;fill-opacity:1;fill-rule:nonzero;stroke:none"
         id="path214" /><path
         d="M 9533.83,13439.4 H 8334.06 v 20 h 1199.77 v -20"
         style="fill:#ffffff;fill-opacity:1;fill-rule:nonzero;stroke:none"
         id="path216" /><path
         d="M 9533.83,13376.9 H 8334.06 v 20 h 1199.77 v -20"
         style="fill:#ffffff;fill-opacity:1;fill-rule:nonzero;stroke:none"
         id="path218" /><path
         d="M 9533.83,13314.4 H 8334.06 v 20 h 1199.77 v -20"
         style="fill:#ffffff;fill-opacity:1;fill-rule:nonzero;stroke:none"
         id="path220" /><path
         d="M 9533.83,13251.9 H 8334.06 v 20 h 1199.77 v -20"
         style="fill:#ffffff;fill-opacity:1;fill-rule:nonzero;stroke:none"
         id="path222" /><path
         d="M 9533.83,13189.4 H 8334.06 v 20 h 1199.77 v -20"
         style="fill:#ffffff;fill-opacity:1;fill-rule:nonzero;stroke:none"
         id="path224" /><path
         d="M 9750.36,12779.8 H 8566.02 v 20 h 1184.34 v -20"
         style="fill:#ffffff;fill-opacity:1;fill-rule:nonzero;stroke:none"
         id="path226" /><path
         d="M 9750.36,12717.3 H 8566.02 v 20 h 1184.34 v -20"
         style="fill:#ffffff;fill-opacity:1;fill-rule:nonzero;stroke:none"
         id="path228" /><path
         d="M 9750.36,12654.8 H 8566.02 v 20 h 1184.34 v -20"
         style="fill:#ffffff;fill-opacity:1;fill-rule:nonzero;stroke:none"
         id="path230" /><path
         d="M 9750.36,12592.3 H 8566.02 v 20 h 1184.34 v -20"
         style="fill:#ffffff;fill-opacity:1;fill-rule:nonzero;stroke:none"
         id="path232" /><path
         d="M 9750.36,12529.8 H 8566.02 v 20 h 1184.34 v -20"
         style="fill:#ffffff;fill-opacity:1;fill-rule:nonzero;stroke:none"
         id="path234" /><path
         d="m 8304.78,9625.84 v 105.82 c 0,72.8 -59.01,131.82 -131.82,131.82 H 7006.15 v -369.46 h 1166.81 c 72.81,0 131.82,59.02 131.82,131.82"
         style="fill:#6059b2;fill-opacity:1;fill-rule:nonzero;stroke:none"
         id="path236" /><path
         d="m 8120.05,9494.02 v 369.46 H 6793.31 v -369.46 h 1326.74"
         style="fill:#b1a9db;fill-opacity:1;fill-rule:nonzero;stroke:none"
         id="path238" /><path
         d="m 8547.34,8902.96 v 73.74 c 0,81.66 -66.19,147.86 -147.85,147.86 H 7248.72 V 8755.1 h 1150.77 c 81.66,0 147.85,66.2 147.85,147.86"
         style="fill:#6059b2;fill-opacity:1;fill-rule:nonzero;stroke:none"
         id="path240" /><path
         d="m 8379.91,8755.1 v 369.46 H 7035.87 V 8755.1 h 1344.04"
         style="fill:#b1a9db;fill-opacity:1;fill-rule:nonzero;stroke:none"
         id="path242" /><path
         d="m 6986.05,9368.36 v -118.15 c 0,-69.39 56.26,-125.65 125.65,-125.65 h 1172.98 v 369.46 H 7111.7 c -69.39,0 -125.65,-56.26 -125.65,-125.66"
         style="fill:#6059b2;fill-opacity:1;fill-rule:nonzero;stroke:none"
         id="path244" /><path
         d="m 7153.49,9494.02 v -369.46 h 1344.03 v 369.46 H 7153.49"
         style="fill:#928ecf;fill-opacity:1;fill-rule:nonzero;stroke:none"
         id="path246" /><path
         d="m 6700.94,8630.9 v -121.1 c 0,-68.6 55.61,-124.2 124.2,-124.2 h 1174.43 v 369.5 H 6825.14 c -68.59,0 -124.2,-55.6 -124.2,-124.2"
         style="fill:#6059b2;fill-opacity:1;fill-rule:nonzero;stroke:none"
         id="path248" /><path
         d="m 6885.67,8755.1 v -369.5 h 1326.75 v 369.5 H 6885.67"
         style="fill:#928ecf;fill-opacity:1;fill-rule:nonzero;stroke:none"
         id="path250" /><path
         d="m 6885.67,8441.5 h 1326.75 v -22.4 H 6885.67 v 22.4"
         style="fill:#b1a9db;fill-opacity:1;fill-rule:nonzero;stroke:none"
         id="path252" /><path
         d="m 6885.67,8511.6 h 1326.75 v -22.4 H 6885.67 v 22.4"
         style="fill:#b1a9db;fill-opacity:1;fill-rule:nonzero;stroke:none"
         id="path254" /><path
         d="m 6885.67,8581.6 h 1326.75 v -22.4 H 6885.67 v 22.4"
         style="fill:#b1a9db;fill-opacity:1;fill-rule:nonzero;stroke:none"
         id="path256" /><path
         d="m 6885.67,8651.6 h 1326.75 v -22.4 H 6885.67 v 22.4"
         style="fill:#b1a9db;fill-opacity:1;fill-rule:nonzero;stroke:none"
         id="path258" /><path
         d="m 6885.67,8721.6 h 1326.75 v -22.4 H 6885.67 v 22.4"
         style="fill:#b1a9db;fill-opacity:1;fill-rule:nonzero;stroke:none"
         id="path260" /><path
         d="m 7153.49,9180.46 h 1344.03 v -22.4 H 7153.49 v 22.4"
         style="fill:#b1a9db;fill-opacity:1;fill-rule:nonzero;stroke:none"
         id="path262" /><path
         d="m 7153.49,9250.48 h 1344.03 v -22.4 H 7153.49 v 22.4"
         style="fill:#b1a9db;fill-opacity:1;fill-rule:nonzero;stroke:none"
         id="path264" /><path
         d="m 7153.49,9320.5 h 1344.03 v -22.41 H 7153.49 v 22.41"
         style="fill:#b1a9db;fill-opacity:1;fill-rule:nonzero;stroke:none"
         id="path266" /><path
         d="m 7153.49,9390.51 h 1344.03 v -22.4 H 7153.49 v 22.4"
         style="fill:#b1a9db;fill-opacity:1;fill-rule:nonzero;stroke:none"
         id="path268" /><path
         d="m 7153.49,9460.52 h 1344.03 v -22.4 H 7153.49 v 22.4"
         style="fill:#b1a9db;fill-opacity:1;fill-rule:nonzero;stroke:none"
         id="path270" /><path
         d="m 7035.87,8811.01 h 1344.04 v -22.42 H 7035.87 v 22.42"
         style="fill:#ffffff;fill-opacity:1;fill-rule:nonzero;stroke:none"
         id="path272" /><path
         d="m 7035.87,8881.02 h 1344.04 v -22.41 H 7035.87 v 22.41"
         style="fill:#ffffff;fill-opacity:1;fill-rule:nonzero;stroke:none"
         id="path274" /><path
         d="m 7035.87,8951.04 h 1344.04 v -22.41 H 7035.87 v 22.41"
         style="fill:#ffffff;fill-opacity:1;fill-rule:nonzero;stroke:none"
         id="path276" /><path
         d="m 7035.87,9021.04 h 1344.04 v -22.4 H 7035.87 v 22.4"
         style="fill:#ffffff;fill-opacity:1;fill-rule:nonzero;stroke:none"
         id="path278" /><path
         d="m 7035.87,9091.06 h 1344.04 v -22.4 H 7035.87 v 22.4"
         style="fill:#ffffff;fill-opacity:1;fill-rule:nonzero;stroke:none"
         id="path280" /><path
         d="m 6793.31,9549.93 h 1326.74 v -22.41 H 6793.31 v 22.41"
         style="fill:#ffffff;fill-opacity:1;fill-rule:nonzero;stroke:none"
         id="path282" /><path
         d="m 6793.31,9619.94 h 1326.74 v -22.41 H 6793.31 v 22.41"
         style="fill:#ffffff;fill-opacity:1;fill-rule:nonzero;stroke:none"
         id="path284" /><path
         d="m 6793.31,9689.96 h 1326.74 v -22.41 H 6793.31 v 22.41"
         style="fill:#ffffff;fill-opacity:1;fill-rule:nonzero;stroke:none"
         id="path286" /><path
         d="m 6793.31,9759.97 h 1326.74 v -22.41 H 6793.31 v 22.41"
         style="fill:#ffffff;fill-opacity:1;fill-rule:nonzero;stroke:none"
         id="path288" /><path
         d="m 6793.31,9829.99 h 1326.74 v -22.41 H 6793.31 v 22.41"
         style="fill:#ffffff;fill-opacity:1;fill-rule:nonzero;stroke:none"
         id="path290" /><path
         d="m 13367.4,8756.85 335.1,971.73 c 1,3 2.2,5.96 3.3,8.88 38,93.71 161.5,115.55 232.9,43.98 l 1014.8,-1016.83 c 90.2,-90.41 26.2,-244.61 -101.4,-244.61 h -1315.8 c -122.8,0 -208.9,120.9 -168.9,236.85"
         style="fill:#928ecf;fill-opacity:1;fill-rule:nonzero;stroke:none"
         id="path292" /><path
         d="m 14840.5,9141.17 c 0,-125.52 -101.7,-227.27 -227.2,-227.27 -125.6,0 -227.3,101.75 -227.3,227.27 0,125.53 101.7,227.28 227.3,227.28 125.5,0 227.2,-101.75 227.2,-227.28"
         style="fill:#ffffff;fill-opacity:1;fill-rule:nonzero;stroke:none"
         id="path294" /></g></g></svg>
